<svg width="32" height="32" fill="none" xmlns="http://www.w3.org/2000/svg"><path d="m15 8-1.27-1.27A2.49 2.49 0 0 0 12 6H3.5A1.48 1.48 0 0 0 2 7.5v17A1.5 1.5 0 0 0 3.5 26h25a1.5 1.5 0 0 0 1.5-1.5v-15A1.5 1.5 0 0 0 28.5 8H15z" fill="#FFB900"/><path d="m15 8-1.27 1.27A2.49 2.49 0 0 1 12 10H2v14.5A1.5 1.5 0 0 0 3.5 26h25a1.5 1.5 0 0 0 1.5-1.5v-15A1.5 1.5 0 0 0 28.5 8H15z" fill="#FFD75E"/><path style="mix-blend-mode:multiply" d="m15 8-1.27 1.27A2.49 2.49 0 0 1 12 10H2v14.5A1.5 1.5 0 0 0 3.5 26h25a1.5 1.5 0 0 0 1.5-1.5v-15A1.5 1.5 0 0 0 28.5 8H15z" fill="url(#a)"/><path d="M3 25.5a1.48 1.48 0 0 1-.78-.22A1.51 1.51 0 0 0 3.5 26h25a1.51 1.51 0 0 0 1.28-.72 1.48 1.48 0 0 1-.78.22H3z" fill="#BF5712"/><path opacity=".4" d="M14.13 9.62 15.75 8H15l-1.27 1.27A2.49 2.49 0 0 1 12 10H2v.5h10a3 3 0 0 0 2.13-.88z" fill="#fff"/><path d="M3 25.5a1.48 1.48 0 0 1-.78-.22A1.51 1.51 0 0 0 3.5 26h25a1.51 1.51 0 0 0 1.28-.72 1.48 1.48 0 0 1-.78.22H3zM20 16.993a2.002 2.002 0 0 0 1.848-1.232 1.995 1.995 0 0 0-1.458-2.723 2.003 2.003 0 0 0-2.053.85 1.994 1.994 0 0 0 .249 2.52c.375.375.884.585 1.414.585zm0-2.995a1.001 1.001 0 0 1 .98 1.193.998.998 0 0 1-1.363.728 1 1 0 0 1-.617-.922.998.998 0 0 1 1-.999zM24.51 16.884a1.401 1.401 0 0 0 1.4-1.398 1.397 1.397 0 0 0-1.4-1.398 1.401 1.401 0 0 0-1.4 1.398 1.396 1.396 0 0 0 1.4 1.398zm0-1.798a.4.4 0 0 1 .283.682.4.4 0 1 1-.283-.682zM22.34 17.992h-4.68A1.592 1.592 0 0 0 16 19.479v.799c.03.646.305 1.257.77 1.707a4.485 4.485 0 0 0 3.23.998c3.95 0 4-2.685 4-2.705v-.799a1.586 1.586 0 0 0-1.66-1.487zm.66 2.276c0 .07-.08 1.747-3 1.747s-3-1.677-3-1.737v-.799a.618.618 0 0 1 .67-.519h4.68a.62.62 0 0 1 .67.52l-.02.788zM25.83 17.992h-1.37c.235.291.4.633.48.998h.89c.08 0 .17.11.17.27v.588a1.177 1.177 0 0 1-1.11 1.139c-.101.35-.25.686-.44.998h.05a2.235 2.235 0 0 0 2.287-1.26c.133-.28.206-.586.213-.897v-.588a1.207 1.207 0 0 0-1.17-1.248z" fill="#BF5712"/><defs><linearGradient id="a" x1="16" y1="8" x2="16" y2="26" gradientUnits="userSpaceOnUse"><stop stop-color="#fff" stop-opacity="0"/><stop offset="1" stop-color="#FFD75E" stop-opacity=".3"/></linearGradient></defs></svg>